#N canvas 392 217 934 1010 12;
#X obj 55 521 cnv 15 800 120 empty empty CONVERT_SLIP_TO_BYTES(LIST) 0 -10 0 14 #c4fcc4 #606060 0;
#X obj 469 83 cnv 15 400 100 empty empty CONVERT_PD_MESSAGE_TO_BYTES(LIST) 0 -10 0 14 #c4c4fc #404040 0;
#X obj 466 703 cnv 15 400 260 empty empty CONVERT_BYTES(LIST)_TO_PD_MESSAGE 0 -10 0 14 #c4c4fc #404040 0;
#X obj 62 89 cnv 15 200 60 empty empty RECEIVE_BYTES(LIST)_FROM_UDP 0 -10 0 14 #fcfcc4 #404040 0;
#X obj 57 210 cnv 15 800 60 empty empty CONVERT_BYTES(LIST)_TO_SLIP 0 -10 0 14 #c4fcc4 #606060 0;
#X obj 56 296 cnv 15 800 200 empty empty SERIAL 0 -10 0 14 #c4fcfc #404040 0;
#X obj 185 466 print errors;
#X msg 144 308 devices;
#X text 201 416 Serial port input/output;
#X text 206 287 List all serial ports;
#X text 370 340 Configure the baud rate and open the named serial port;
#X msg 202 382 close;
#X text 250 361 Close the port;
#X text 193 505 Convert from SLIP to a raw OSC message;
#X obj 162 334 loadbang;
#X obj 108 124 bng 15 250 50 0 empty empty data 17 7 0 10 #fcfcfc #000000 #000000;
#X obj 479 894 spigot;
#X obj 517 870 tgl 15 0 empty empty empty 17 7 0 10 #fcfcfc #000000 #000000 0 1;
#X obj 478 938 print debug;
#X obj 73 724 cnv 15 350 200 empty empty SEND_BYTES(LIST)_TO_UDP 0 -10 0 14 #fcfcc4 #404040 0;
#X obj 162 769 loadbang;
#X msg 201 844 disconnect;
#X text 536 849 Print the message sent by the serial port;
#X obj 84 437 comport/comport;
#X obj 199 248 bng 15 250 50 0 empty empty error 17 7 0 10 #fcfcfc #000000 #000000;
#X obj 178 553 bng 15 250 50 0 empty empty error 17 7 0 10 #fcfcfc #000000 #000000;
#X obj 101 466 bng 15 250 50 0 empty empty data 17 7 0 10 #fcfcfc #000000 #000000;
#X obj 197 607 bng 15 250 50 0 empty empty error 17 7 0 10 #fcfcfc #000000 #000000;
#X obj 85 881 netsend -u -b;
#X obj 479 713 oscparse;
#X text 542 694 Convert raw OSC to PD message;
#X obj 479 742 list trim;
#X obj 85 736 list prepend send;
#X obj 85 762 list trim;
#X floatatom 538 819 5 0 0 0 - - - 0;
#X floatatom 595 819 5 0 0 0 - - - 0;
#X obj 652 822 tgl 15 0 empty empty empty 17 7 0 10 #fcfcfc #000000 #000000 0 1;
#X obj 477 95 tgl 15 0 empty empty empty 17 7 0 10 #fcfcfc #000000 #000000 0 1;
#X floatatom 682 95 5 0 255 0 - - - 0;
#X obj 538 785 route pot photo button;
#X obj 477 128 oscformat -f i led;
#X obj 682 127 oscformat -f i pwm;
#X text 521 742 WARNING: oscparse removes the / from the address;
#X text 211 202 Convert from byte list (raw OSC) to SLIP;
#X text 64 -15 This patcher was created by Thomas O Fredericks on 2022-11-27 and it requires the following additionnal library/object: comport;
#X text 475 129 WARNING: oscfornat automatically prefixes / to the address;
#N canvas 0 50 1091 873 bytesToSlip 0;
#X obj 258 613 list store;
#X msg 602 532 append \$1;
#X obj 574 456 select 192 219;
#X msg 580 494 219 \, 220;
#X msg 673 495 219 \, 221;
#X msg 119 464 append 192 \, bang;
#X msg 293 411 192;
#X obj 635 787 outlet error;
#X obj 347 790 outlet slip;
#N canvas 156 156 450 300 iterate 0;
#X obj 118 136 until;
#X obj 131 219 list store;
#X obj 152 103 t b b l;
#X obj 118 161 f;
#X obj 156 162 + 1;
#X msg 175 136 0, f 2;
#X msg 118 192 get \$1 1;
#X obj 159 28 inlet;
#X obj 175 266 outlet;
#X connect 0 0 3 0;
#X connect 1 0 8 0;
#X connect 1 1 0 1;
#X connect 2 0 0 0;
#X connect 2 1 5 0;
#X connect 2 2 1 1;
#X connect 3 0 4 0;
#X connect 3 0 6 0;
#X connect 4 0 3 1;
#X connect 5 0 3 1;
#X connect 6 0 1 0;
#X connect 7 0 2 0;
#X restore 391 274 pd iterate;
#X obj 479 349 moses 256;
#X obj 391 311 moses 0;
#X obj 218 52 inlet list;
#N canvas 182 182 896 652 switcher 0;
#X obj 217 67 inlet;
#X obj 230 412 outlet out0;
#X obj 432 408 outlet out1;
#X obj 392 65 inlet select outlet;
#X obj 270 281 route 0 1;
#X obj 265 222 list prepend 0;
#X connect 0 0 5 0;
#X connect 3 0 5 1;
#X connect 4 0 1 0;
#X connect 4 1 2 0;
#X connect 5 0 4 0;
#X restore 401 688 pd switcher;
#X msg 442 445 1;
#X obj 218 130 t b b a b;
#X msg 391 448 0;
#X connect 0 0 13 0;
#X connect 1 0 0 0;
#X connect 2 0 3 0;
#X connect 2 1 4 0;
#X connect 2 2 1 0;
#X connect 3 0 1 0;
#X connect 4 0 1 0;
#X connect 5 0 0 0;
#X connect 6 0 0 1;
#X connect 9 0 11 0;
#X connect 10 0 2 0;
#X connect 10 1 14 0;
#X connect 11 0 14 0;
#X connect 11 1 10 0;
#X connect 12 0 15 0;
#X connect 13 0 8 0;
#X connect 13 1 7 0;
#X connect 14 0 13 1;
#X connect 15 0 16 0;
#X connect 15 1 5 0;
#X connect 15 2 9 0;
#X connect 15 3 6 0;
#X connect 16 0 13 1;
#X restore 86 223 pd bytesToSlip;
#N canvas 0 50 1195 915 slipToBytes 0;
#X obj 292 702 list store;
#X obj 293 806 route bang;
#X obj 281 309 select 192;
#X obj 750 475 select 219;
#X obj 813 672 select 220 221;
#X msg 801 726 192;
#X msg 848 724 219;
#X obj 823 637 t a b;
#N canvas 156 156 450 300 iterate 0;
#X obj 118 136 until;
#X obj 131 219 list store;
#X obj 152 103 t b b l;
#X obj 118 161 f;
#X obj 156 162 + 1;
#X msg 175 136 0, f 2;
#X msg 118 192 get \$1 1;
#X obj 159 28 inlet;
#X obj 175 266 outlet;
#X connect 0 0 3 0;
#X connect 1 0 8 0;
#X connect 1 1 0 1;
#X connect 2 0 0 0;
#X connect 2 1 5 0;
#X connect 2 2 1 1;
#X connect 3 0 4 0;
#X connect 3 0 6 0;
#X connect 4 0 3 1;
#X connect 5 0 3 1;
#X connect 6 0 1 0;
#X connect 7 0 2 0;
#X restore 281 261 pd iterate;
#X obj 366 1046 outlet decoded;
#X obj 639 1059 outlet error;
#N canvas 182 182 896 652 switcher 0;
#X obj 217 67 inlet;
#X obj 230 412 outlet out0;
#X obj 432 408 outlet out1;
#X obj 392 65 inlet select outlet;
#X obj 270 281 route 0 1;
#X obj 265 222 list prepend 0;
#X connect 0 0 5 0;
#X connect 3 0 5 1;
#X connect 4 0 1 0;
#X connect 4 1 2 0;
#X connect 5 0 4 0;
#X restore 798 586 pd switcher;
#X msg 692 781 append \$1;
#X msg 919 564 0;
#X msg 746 532 1;
#X obj 280 464 t b b b b;
#X msg 540 883 0;
#X msg 932 799 1;
#X obj 140 34 inlet list;
#N canvas 182 182 896 652 switcher 0;
#X obj 217 67 inlet;
#X obj 230 412 outlet out0;
#X obj 432 408 outlet out1;
#X obj 392 65 inlet select outlet;
#X obj 270 281 route 0 1;
#X obj 265 222 list prepend 0;
#X connect 0 0 5 0;
#X connect 3 0 5 1;
#X connect 4 0 1 0;
#X connect 4 1 2 0;
#X connect 5 0 4 0;
#X restore 468 942 pd switcher;
#X connect 0 0 1 0;
#X connect 1 1 19 0;
#X connect 2 0 15 0;
#X connect 2 1 3 0;
#X connect 3 0 14 0;
#X connect 3 1 11 0;
#X connect 4 0 5 0;
#X connect 4 1 6 0;
#X connect 4 2 17 0;
#X connect 5 0 12 0;
#X connect 6 0 12 0;
#X connect 7 0 4 0;
#X connect 7 1 13 0;
#X connect 8 0 2 0;
#X connect 11 0 12 0;
#X connect 11 1 7 0;
#X connect 12 0 0 0;
#X connect 13 0 11 1;
#X connect 14 0 11 1;
#X connect 15 0 16 0;
#X connect 15 1 0 1;
#X connect 15 2 0 0;
#X connect 16 0 19 1;
#X connect 17 0 19 1;
#X connect 18 0 8 0;
#X connect 19 0 9 0;
#X connect 19 1 10 0;
#X restore 85 529 pd slipToBytes;
#X text 209 557 Error checking : make sure the packet size is a multiple of 4;
#N canvas 156 156 1101 683 sizeIsMultOf4 0;
#X obj 157 132 list length;
#X obj 161 161 % 4;
#X obj 168 199 == 0;
#X obj 236 245 select 0;
#N canvas 182 182 896 652 switcher 0;
#X obj 217 67 inlet;
#X obj 230 412 outlet out0;
#X obj 432 408 outlet out1;
#X obj 392 65 inlet select outlet;
#X obj 270 281 route 0 1;
#X obj 265 222 list prepend 0;
#X connect 0 0 5 0;
#X connect 3 0 5 1;
#X connect 4 0 1 0;
#X connect 4 1 2 0;
#X connect 5 0 4 0;
#X restore 104 312 pd switcher;
#X obj 103 96 t a a b;
#X msg 270 90 0;
#X msg 238 284 1;
#X obj 246 434 outlet error;
#X obj 105 431 outlet valid;
#X obj 102 37 inlet list;
#X connect 0 0 1 0;
#X connect 1 0 2 0;
#X connect 2 0 3 0;
#X connect 3 0 7 0;
#X connect 4 0 9 0;
#X connect 4 1 8 0;
#X connect 5 0 4 0;
#X connect 5 1 0 0;
#X connect 5 2 6 0;
#X connect 6 0 4 1;
#X connect 7 0 4 1;
#X connect 10 0 5 0;
#X restore 85 580 pd sizeIsMultOf4;
#X msg 162 801 connect localhost 8001;
#X obj -290 724 cnv 15 350 200 empty empty SEND_BYTES(LIST)_TO_UDP 0 -10 0 14 #fcfcc4 #404040 0;
#X obj -201 769 loadbang;
#X msg -162 844 disconnect;
#X obj -278 881 netsend -u -b;
#X obj -278 736 list prepend send;
#X obj -278 762 list trim;
#X msg -201 801 connect localhost 8002;
#X msg 162 359 baud 115200 \, devicename COM3;
#X obj 352 1042 netreceive -u -b 8002;
#X obj 352 1123 oscparse;
#X obj 801 1186 netsend -u -b;
#X msg 801 1091 connect 127.0.0.1 8002;
#X obj 699 1040 oscformat test;
#X floatatom 639 1067 5 0 0 0 - - - 12;
#X msg 948 1161 disconnect;
#X obj 352 1165 list trim;
#X obj 390 1085 bng 15 250 50 0 empty empty data 17 7 0 10 #fcfcfc #000000 #000000;
#X floatatom 41 1283 5 0 0 0 - - - 16;
#X floatatom 41 1348 5 0 0 0 - - - 16;
#X floatatom 137 1591 5 0 0 0 - - - 16;
#X obj 1964 1986 netsend -u -b;
#X msg 742 1451 connect 127.0.0.1 8003;
#X obj 752 1427 loadbang;
#X floatatom 137 1651 5 0 0 0 - - - 16;
#X floatatom 419 1598 5 0 0 0 - - - 16;
#X floatatom 419 1658 5 0 0 0 - - - 16;
#X floatatom 1056 3964 7 0 0 0 - - - 16;
#X floatatom 1056 4042 5 0 0 0 - - - 16;
#X floatatom 1035 1947 5 0 0 0 - - - 16;
#X floatatom 1239 2019 5 0 0 0 - - - 16;
#X floatatom 1405 3124 7 0 0 0 - - - 16;
#X floatatom 1405 3184 5 0 0 0 - - - 16;
#X obj 41 1312 scale 0 2 0 127;
#X obj 41 1387 oscformat /master/volume1;
#X text -7 1264 tint;
#X text 350 1577 lightness;
#X floatatom 2026 1271 5 0 0 0 - - - 16;
#X floatatom 2054 1344 5 0 0 0 - - - 16;
#X floatatom 2385 258 5 0 0 0 - - - 16;
#X floatatom 2597 430 7 0 0 0 - - - 16;
#X text 2328 228 button;
#X msg 2597 385 127;
#X obj 2385 337 change;
#X obj 2385 365 select 1;
#X floatatom 2385 645 5 0 0 0 - - - 12;
#X obj 2385 604 line;
#X obj 2522 270 bng 25 250 50 0 empty empty empty 17 7 0 10 #e4e4e4 #4d4d4d #373737;
#X obj 2511 358 bng 25 250 50 0 empty empty empty 17 7 0 10 #e4e4e4 #4d4d4d #373737;
#X msg 2588 321 stop;
#X msg 2185 310 127;
#X floatatom 2173 347 7 0 0 0 - - - 16;
#X text 88 1578 sat;
#X floatatom 1582 1238 5 0 0 0 - - - 16;
#X floatatom 1582 1312 5 0 0 0 - - - 16;
#X text 1533 1225 grow;
#X text 2139 295 key;
#X text 2597 442 note;
#X msg 2279 550 0;
#X floatatom 2140 660 5 0 0 0 - - - 12;
#X obj 2140 619 line;
#X msg 2140 590 \$1 3500;
#X obj 2204 660 oscformat /track/16/volume;
#X msg 2319 550 0.1;
#X text 2339 507 sound;
#X text 2105 576 lab;
#X obj 1500 1387 oscformat /track/10/volume;
#X text 1965 1246 twist;
#X text 2426 442 interchange, f 13;
#X text 1693 1314 random sounds, f 12;
#X msg 1146 4475 127;
#X floatatom 1102 4520 7 0 0 0 - - - 16;
#X msg 1320 4499 127;
#X floatatom 1308 4536 7 0 0 0 - - - 16;
#X msg 1206 4709 127;
#X floatatom 1194 4746 7 0 0 0 - - - 16;
#X obj 1235 4369 t a b;
#X obj 2426 407 %;
#X obj 2175 385 oscformat /vkb_midi/1/note/12, f 26;
#X msg 2385 472 0;
#X msg 2385 550 \$1 4000;
#X obj 2511 321 del 4000;
#X obj 1056 3995 scale 0 5 110 127;
#X floatatom 2775 757 7 0 0 0 - - - 16;
#X floatatom 2975 745 7 0 0 0 - - - 16;
#X floatatom 3167 757 7 0 0 0 - - - 16;
#X obj 2862 47 sel 0 1 2;
#X floatatom 3257 444 7 0 0 0 - - - 16;
#X floatatom 3457 432 7 0 0 0 - - - 16;
#X floatatom 3649 444 7 0 0 0 - - - 16;
#X floatatom 3447 104 7 0 0 0 - - - 16;
#X floatatom 3647 92 7 0 0 0 - - - 16;
#X floatatom 3839 104 7 0 0 0 - - - 16;
#X obj 2651 456 oscformat /vkb_midi/1/note/0, f 26;
#X msg 2787 720 1;
#X obj 2738 806 oscformat /track/8/mute, f 26;
#X obj 2938 794 oscformat /track/9/mute, f 26;
#X obj 3220 493 oscformat /track/8/mute, f 26;
#X obj 3420 481 oscformat /track/9/mute, f 26;
#X obj 3612 493 oscformat /track/10/mute;
#X obj 3610 141 oscformat /track/9/mute, f 26;
#X obj 3802 153 oscformat /track/10/mute;
#X msg 2977 720 1;
#X msg 3269 407 1;
#X msg 3459 407 0;
#X msg 3661 407 1;
#X msg 3459 67 0;
#X msg 3649 67 1;
#X msg 3851 67 1;
#X obj 3410 153 oscformat /track/8/mute, f 26;
#X obj 3130 806 oscformat /track/10/mute;
#X msg 3179 720 0;
#X obj 1056 4104 oscformat /vkb_midi/5/cc/12;
#X obj 930 2048 oscformat /vkb_midi/5/cc/13;
#X obj 2862 -28 urn 3;
#X msg 2930 8 clear;
#X obj 2930 -28 t b b;
#X obj 2054 1384 oscformat /vkb_midi/5/cc/14;
#X obj 2026 1315 scale 0 1 64 80;
#X obj 55 1682 oscformat /vkb_midi/5/cc/15;
#X obj 392 1689 oscformat /vkb_midi/5/cc/16;
#X obj 419 1629 scale 0 1 0 127;
#X obj 137 1622 scale 0 1 45 80;
#X obj 1405 3215 oscformat /vkb_midi/5/cc/17;
#X obj 1405 3155 scale 0 5 0 100;
#X obj 1582 1283 scale 0 1 0 0.6;
#X obj 1226 4187 change;
#X msg 1044 4483 0;
#X msg 1019 4544 64;
#X obj 99 1802 spigot 1;
#X obj 180 1788 tgl 25 0 empty empty empty 17 7 0 10 #e4e4e4 #4d4d4d #373737 0 1;
#X obj 183 1730 loadbang;
#X msg 183 1755 1;
#X obj 479 1827 spigot 1;
#X obj 603 1821 tgl 25 0 empty empty empty 17 7 0 10 #e4e4e4 #4d4d4d #373737 0 1;
#X obj 563 1755 loadbang;
#X msg 563 1780 1;
#X obj 1061 4166 spigot 1;
#X obj 1149 4164 tgl 25 0 empty empty empty 17 7 0 10 #e4e4e4 #4d4d4d #373737 0 1;
#X obj 1177 4129 loadbang;
#X msg 1149 4129 1;
#X obj 1370 3413 spigot 1;
#X obj 1458 3411 tgl 25 0 empty empty empty 17 7 0 10 #e4e4e4 #4d4d4d #373737 0 1;
#X obj 1458 3351 loadbang;
#X msg 1458 3376 1;
#X obj -54 1581 spigot 1;
#X obj 27 1567 tgl 25 0 empty empty empty 17 7 0 10 #e4e4e4 #4d4d4d #373737 0 1;
#X obj 30 1509 loadbang;
#X msg 30 1534 1;
#X obj 1177 3239 spigot 1;
#X obj 1265 3237 tgl 25 0 empty empty empty 17 7 0 10 #e4e4e4 #4d4d4d #373737 0 1;
#X obj 1265 3177 loadbang;
#X msg 1265 3202 1;
#X obj 1202 1414 spigot 1;
#X obj 1290 1412 tgl 25 0 empty empty empty 17 7 0 10 #e4e4e4 #4d4d4d #373737 0 1;
#X obj 1290 1352 loadbang;
#X msg 1290 1377 1;
#X obj 2156 806 spigot 1;
#X obj 2244 804 tgl 25 0 empty empty empty 17 7 0 10 #e4e4e4 #4d4d4d #373737 0 1;
#X obj 2244 744 loadbang;
#X msg 2244 769 1;
#X obj 2054 1495 spigot 1, f 7;
#X obj 2198 1584 tgl 20 0 empty empty empty 17 7 0 10 #e4e4e4 #4d4d4d #373737 0 1;
#X obj 2200 1524 loadbang;
#X msg 2193 1549 1;
#X obj 2590 1060 spigot 1;
#X obj 2678 1058 tgl 25 0 empty empty empty 17 7 0 10 #e4e4e4 #4d4d4d #373737 0 1;
#X obj 2678 998 loadbang;
#X msg 2678 1023 1;
#X obj 2869 1074 spigot 1;
#X obj 2957 1072 tgl 25 0 empty empty empty 17 7 0 10 #e4e4e4 #4d4d4d #373737 0 1;
#X obj 2957 1012 loadbang;
#X msg 2957 1037 1;
#X obj 3104 1099 spigot 1;
#X obj 3192 1097 tgl 25 0 empty empty empty 17 7 0 10 #e4e4e4 #4d4d4d #373737 0 1;
#X obj 3192 1037 loadbang;
#X msg 3192 1062 1;
#X obj 2374 810 spigot 1;
#X obj 2462 808 tgl 25 0 empty empty empty 17 7 0 10 #e4e4e4 #4d4d4d #373737 0 1;
#X obj 2462 748 loadbang;
#X msg 2462 773 1;
#X obj 2567 660 spigot 1;
#X obj 2656 705 tgl 25 0 empty empty empty 17 7 0 10 #e4e4e4 #4d4d4d #373737 0 1;
#X obj 2656 645 loadbang;
#X msg 2656 670 1;
#X obj 1968 536 spigot 1;
#X obj 2056 534 tgl 25 0 empty empty empty 17 7 0 10 #e4e4e4 #4d4d4d #373737 0 1;
#X obj 2056 474 loadbang;
#X msg 2056 499 1;
#X obj 3351 745 spigot 1;
#X obj 3439 743 tgl 25 0 empty empty empty 17 7 0 10 #e4e4e4 #4d4d4d #373737 0 1;
#X obj 3439 683 loadbang;
#X msg 3439 708 1;
#X obj 3630 759 spigot 1;
#X obj 3718 757 tgl 25 0 empty empty empty 17 7 0 10 #e4e4e4 #4d4d4d #373737 0 1;
#X obj 3718 697 loadbang;
#X msg 3718 722 1;
#X obj 3865 784 spigot 1;
#X obj 3953 782 tgl 25 0 empty empty empty 17 7 0 10 #e4e4e4 #4d4d4d #373737 0 1;
#X obj 3953 722 loadbang;
#X msg 3953 747 1;
#X obj 3829 432 spigot 1;
#X obj 3917 430 tgl 25 0 empty empty empty 17 7 0 10 #e4e4e4 #4d4d4d #373737 0 1;
#X obj 3917 370 loadbang;
#X msg 3917 395 1;
#X obj 4108 446 spigot 1;
#X obj 4196 444 tgl 25 0 empty empty empty 17 7 0 10 #e4e4e4 #4d4d4d #373737 0 1;
#X obj 4196 384 loadbang;
#X msg 4196 409 1;
#X obj 4343 471 spigot 1;
#X obj 4431 469 tgl 25 0 empty empty empty 17 7 0 10 #e4e4e4 #4d4d4d #373737 0 1;
#X obj 4431 409 loadbang;
#X msg 4431 434 1;
#X obj 1218 4775 oscformat /vkb_midi/0/note/15, f 26;
#X obj 1218 4873 spigot 1;
#X obj 1289 4902 tgl 25 0 empty empty empty 17 7 0 10 #e4e4e4 #4d4d4d #373737 0 1;
#X obj 1289 4842 loadbang;
#X msg 1289 4867 1;
#X obj 1324 4682 spigot 1;
#X obj 1412 4680 tgl 25 0 empty empty empty 17 7 0 10 #e4e4e4 #4d4d4d #373737 0 1;
#X obj 1412 4620 loadbang;
#X msg 1412 4645 1;
#X obj 998 4689 spigot 1;
#X obj 1086 4687 tgl 25 0 empty empty empty 17 7 0 10 #e4e4e4 #4d4d4d #373737 0 1;
#X obj 1086 4627 loadbang;
#X msg 1086 4652 1;
#X obj 1310 4574 oscformat /vkb_midi/0/note/13;
#X msg 1575 4672 127;
#X floatatom 1531 4717 7 0 0 0 - - - 16;
#X msg 1635 4906 127;
#X floatatom 1623 4943 7 0 0 0 - - - 16;
#X msg 1473 4680 0;
#X msg 1448 4741 64;
#X obj 1613 5039 spigot 1;
#X obj 1718 5099 tgl 25 0 empty empty empty 17 7 0 10 #e4e4e4 #4d4d4d #373737 0 1;
#X obj 1718 5039 loadbang;
#X msg 1718 5064 1;
#X obj 1427 4886 spigot 1;
#X obj 1515 4884 tgl 25 0 empty empty empty 17 7 0 10 #e4e4e4 #4d4d4d #373737 0 1;
#X obj 1515 4824 loadbang;
#X msg 1515 4849 1;
#X msg 1322 4973 127;
#X floatatom 1310 5010 7 0 0 0 - - - 16;
#X obj 1334 5137 spigot 1;
#X obj 1405 5166 tgl 25 0 empty empty empty 17 7 0 10 #e4e4e4 #4d4d4d #373737 0 1;
#X obj 1405 5106 loadbang;
#X msg 1405 5131 1;
#X obj 1235 4395 random 7;
#X obj 1235 4423 sel 0 1 2 3 4 5 6 7;
#X obj 1081 4559 oscformat /vkb_midi/0/note/14, f 28;
#X obj 1510 4756 oscformat /vkb_midi/0/note/16, f 28;
#X obj 1334 5039 oscformat /vkb_midi/0/note/17, f 26;
#X obj 1647 4972 oscformat /vkb_midi/0/note/18, f 26;
#X msg 2613 1986 127;
#X floatatom 2569 2031 7 0 0 0 - - - 16;
#X msg 2787 2010 127;
#X floatatom 2775 2047 7 0 0 0 - - - 16;
#X msg 2673 2220 127;
#X floatatom 2661 2257 7 0 0 0 - - - 16;
#X obj 2717 1848 t a b;
#X obj 2722 1787 change;
#X msg 2511 1994 0;
#X msg 2486 2055 64;
#X obj 2685 2286 oscformat /vkb_midi/0/note/15, f 26;
#X obj 2685 2384 spigot 1;
#X obj 2756 2413 tgl 25 0 empty empty empty 17 7 0 10 #e4e4e4 #4d4d4d #373737 0 1;
#X obj 2756 2353 loadbang;
#X msg 2756 2378 1;
#X obj 2791 2193 spigot 1;
#X obj 2879 2191 tgl 25 0 empty empty empty 17 7 0 10 #e4e4e4 #4d4d4d #373737 0 1;
#X obj 2879 2131 loadbang;
#X msg 2879 2156 1;
#X obj 2465 2200 spigot 1;
#X obj 2553 2198 tgl 25 0 empty empty empty 17 7 0 10 #e4e4e4 #4d4d4d #373737 0 1;
#X obj 2553 2138 loadbang;
#X msg 2553 2163 1;
#X obj 2777 2085 oscformat /vkb_midi/0/note/13;
#X msg 3042 2183 127;
#X floatatom 2998 2228 7 0 0 0 - - - 16;
#X msg 3102 2417 127;
#X floatatom 3090 2454 7 0 0 0 - - - 16;
#X msg 2940 2191 0;
#X msg 2915 2252 64;
#X obj 3080 2550 spigot 1;
#X obj 3185 2610 tgl 25 0 empty empty empty 17 7 0 10 #e4e4e4 #4d4d4d #373737 0 1;
#X obj 3185 2550 loadbang;
#X msg 3185 2575 1;
#X obj 2894 2397 spigot 1;
#X obj 2982 2395 tgl 25 0 empty empty empty 17 7 0 10 #e4e4e4 #4d4d4d #373737 0 1;
#X obj 2982 2335 loadbang;
#X msg 2982 2360 1;
#X msg 2834 2397 127;
#X floatatom 2822 2434 7 0 0 0 - - - 16;
#X obj 2846 2561 spigot 1;
#X obj 2917 2590 tgl 25 0 empty empty empty 17 7 0 10 #e4e4e4 #4d4d4d #373737 0 1;
#X obj 2917 2530 loadbang;
#X msg 2917 2555 1;
#X obj 2702 1882 random 7;
#X obj 2702 1934 sel 0 1 2 3 4 5 6 7;
#X obj 2548 2070 oscformat /vkb_midi/0/note/14, f 28;
#X obj 2977 2267 oscformat /vkb_midi/0/note/16, f 28;
#X obj 2846 2463 oscformat /vkb_midi/0/note/17, f 26;
#X obj 3114 2483 oscformat /vkb_midi/0/note/18, f 26;
#X obj 2770 1808 select 100;
#X msg 2426 519 0.3;
#X obj 2447 586 oscformat /track/30/volume;
#X obj 84 95 netreceive -u -b 8010;
#X obj 1241 4310 change;
#X msg 1194 4234 0;
#X msg 1194 4273 1;
#X obj 245 4177 change;
#X obj 245 4224 moses 110.5;
#X obj 245 4270 moses 111;
#X obj 260 4300 change;
#X msg 213 4224 0;
#X msg 213 4263 1;
#X obj 368 4177 change;
#X obj 383 4300 change;
#X msg 336 4224 0;
#X msg 336 4263 1;
#X obj 487 4177 change;
#X obj 502 4300 change;
#X msg 455 4224 0;
#X msg 455 4263 1;
#X obj 611 4177 change;
#X obj 626 4300 change;
#X msg 579 4224 0;
#X msg 579 4263 1;
#X obj 730 4233 change;
#X obj 745 4356 change;
#X msg 698 4280 0;
#X msg 698 4319 1;
#X obj 853 4233 change;
#X obj 868 4356 change;
#X msg 821 4280 0;
#X msg 821 4319 1;
#X obj 972 4233 change;
#X obj 987 4356 change;
#X msg 940 4280 0;
#X msg 940 4319 1;
#X obj 1096 4233 change;
#X obj 1111 4356 change;
#X msg 1064 4280 0;
#X msg 1064 4319 1;
#X obj 368 4270 moses 112;
#X obj 487 4270 moses 113;
#X obj 611 4270 moses 114;
#X obj 730 4326 moses 115;
#X obj 853 4326 moses 116;
#X obj 972 4326 moses 117;
#X obj 1096 4326 moses 118;
#X obj 368 4224 moses 111.5;
#X obj 487 4224 moses 112.5;
#X obj 611 4224 moses 113.5;
#X obj 730 4280 moses 114.5;
#X obj 853 4280 moses 115.5;
#X obj 972 4280 moses 116.5;
#X obj 1096 4280 moses 116.5;
#X obj 1226 4234 moses 117.5;
#X obj 1226 4280 moses 118;
#X obj 62 4365 change;
#X obj 77 4488 change;
#X msg 30 4412 0;
#X msg 30 4451 1;
#X obj 185 4365 change;
#X obj 200 4488 change;
#X msg 153 4412 0;
#X msg 153 4451 1;
#X obj 304 4365 change;
#X obj 319 4488 change;
#X msg 272 4412 0;
#X msg 272 4451 1;
#X obj 428 4365 change;
#X obj 443 4488 change;
#X msg 396 4412 0;
#X msg 396 4451 1;
#X obj 547 4421 change;
#X obj 562 4544 change;
#X msg 515 4468 0;
#X msg 515 4507 1;
#X obj 670 4421 change;
#X obj 685 4544 change;
#X msg 638 4468 0;
#X msg 638 4507 1;
#X obj 789 4421 change;
#X obj 804 4544 change;
#X msg 757 4468 0;
#X msg 757 4507 1;
#X obj 913 4421 change;
#X obj 928 4544 change;
#X msg 881 4468 0;
#X msg 881 4507 1;
#X obj 62 4412 moses 118.5;
#X obj 62 4458 moses 119;
#X obj 185 4458 moses 120;
#X obj 304 4458 moses 121;
#X obj 428 4458 moses 122;
#X obj 547 4514 moses 123;
#X obj 670 4514 moses 124;
#X obj 789 4514 moses 125;
#X obj 913 4514 moses 126;
#X obj 185 4412 moses 119.5;
#X obj 304 4412 moses 120.5;
#X obj 428 4412 moses 121.5;
#X obj 547 4468 moses 122.5;
#X obj 670 4468 moses 123.5;
#X obj 789 4468 moses 124.5;
#X obj 913 4468 moses 125.5;
#X obj 115 4167 change;
#X obj 130 4290 change;
#X msg 83 4214 0;
#X msg 83 4253 1;
#X obj 115 4214 moses 109;
#X obj 115 4260 moses 110.5;
#X msg 2409 3848 127;
#X floatatom 2365 3893 7 0 0 0 - - - 16;
#X msg 2583 3872 127;
#X floatatom 2571 3909 7 0 0 0 - - - 16;
#X msg 2469 4082 127;
#X floatatom 2457 4119 7 0 0 0 - - - 16;
#X obj 2498 3742 t a b;
#X obj 2489 3560 change;
#X msg 2307 3856 0;
#X msg 2282 3917 64;
#X obj 2481 4246 spigot 1;
#X obj 2552 4275 tgl 25 0 empty empty empty 17 7 0 10 #e4e4e4 #4d4d4d #373737 0 1;
#X obj 2552 4215 loadbang;
#X msg 2552 4240 1;
#X obj 2587 4055 spigot 1;
#X obj 2675 4053 tgl 25 0 empty empty empty 17 7 0 10 #e4e4e4 #4d4d4d #373737 0 1;
#X obj 2675 3993 loadbang;
#X msg 2675 4018 1;
#X obj 2282 4077 spigot 1;
#X obj 2349 4060 tgl 25 0 empty empty empty 17 7 0 10 #e4e4e4 #4d4d4d #373737 0 1;
#X obj 2349 4000 loadbang;
#X msg 2349 4025 1;
#X msg 2838 4045 127;
#X floatatom 2794 4090 7 0 0 0 - - - 16;
#X msg 2898 4279 127;
#X floatatom 2886 4316 7 0 0 0 - - - 16;
#X msg 2736 4053 0;
#X msg 2711 4114 64;
#X obj 2876 4412 spigot 1;
#X obj 2981 4472 tgl 25 0 empty empty empty 17 7 0 10 #e4e4e4 #4d4d4d #373737 0 1;
#X obj 2981 4412 loadbang;
#X msg 2981 4437 1;
#X obj 2690 4259 spigot 1;
#X obj 2778 4257 tgl 25 0 empty empty empty 17 7 0 10 #e4e4e4 #4d4d4d #373737 0 1;
#X obj 2778 4197 loadbang;
#X msg 2778 4222 1;
#X msg 2585 4346 127;
#X floatatom 2573 4383 7 0 0 0 - - - 16;
#X obj 2597 4510 spigot 1;
#X obj 2668 4539 tgl 25 0 empty empty empty 17 7 0 10 #e4e4e4 #4d4d4d #373737 0 1;
#X obj 2668 4479 loadbang;
#X msg 2668 4504 1;
#X obj 2498 3768 random 7;
#X obj 2498 3796 sel 0 1 2 3 4 5 6 7;
#X obj 2504 3683 change;
#X msg 2457 3607 0;
#X msg 2457 3646 1;
#X obj 1508 3550 change;
#X obj 1523 3673 change;
#X msg 1476 3597 0;
#X msg 1476 3636 1;
#X obj 1631 3550 change;
#X obj 1646 3673 change;
#X msg 1599 3597 0;
#X msg 1599 3636 1;
#X obj 1750 3550 change;
#X obj 1765 3673 change;
#X msg 1718 3597 0;
#X msg 1718 3636 1;
#X obj 1874 3550 change;
#X obj 1889 3673 change;
#X msg 1842 3597 0;
#X msg 1842 3636 1;
#X obj 1993 3606 change;
#X obj 2008 3729 change;
#X msg 1961 3653 0;
#X msg 1961 3692 1;
#X obj 2116 3606 change;
#X obj 2131 3729 change;
#X msg 2084 3653 0;
#X msg 2084 3692 1;
#X obj 2235 3606 change;
#X obj 2250 3729 change;
#X msg 2203 3653 0;
#X msg 2203 3692 1;
#X obj 2359 3606 change;
#X obj 2374 3729 change;
#X msg 2327 3653 0;
#X msg 2327 3692 1;
#X obj 1325 3738 change;
#X obj 1340 3861 change;
#X msg 1293 3785 0;
#X msg 1293 3824 1;
#X obj 1448 3738 change;
#X obj 1463 3861 change;
#X msg 1416 3785 0;
#X msg 1416 3824 1;
#X obj 1567 3738 change;
#X obj 1582 3861 change;
#X msg 1535 3785 0;
#X msg 1535 3824 1;
#X obj 1691 3738 change;
#X obj 1706 3861 change;
#X msg 1659 3785 0;
#X msg 1659 3824 1;
#X obj 1810 3794 change;
#X obj 1825 3917 change;
#X msg 1778 3841 0;
#X msg 1778 3880 1;
#X obj 1933 3794 change;
#X obj 1948 3917 change;
#X msg 1901 3841 0;
#X msg 1901 3880 1;
#X obj 2052 3794 change;
#X obj 2067 3917 change;
#X msg 2020 3841 0;
#X msg 2020 3880 1;
#X obj 2176 3794 change;
#X obj 2191 3917 change;
#X msg 2144 3841 0;
#X msg 2144 3880 1;
#X obj 1378 3540 change;
#X obj 1393 3663 change;
#X msg 1346 3587 0;
#X msg 1346 3626 1;
#X obj 1378 3587 moses 0;
#X obj 1378 3633 moses 5;
#X obj 1508 3597 moses 5;
#X obj 1508 3643 moses 10;
#X obj 1631 3597 moses 10;
#X obj 1631 3643 moses 15;
#X obj 1750 3597 moses 15;
#X obj 1750 3643 moses 20;
#X obj 1874 3597 moses 20;
#X obj 1874 3643 moses 25;
#X obj 1993 3653 moses 25;
#X obj 1993 3686 moses 30;
#X obj 2116 3653 moses 30;
#X obj 2117 3692 moses 35;
#X obj 2235 3653 moses 35;
#X obj 2235 3699 moses 40;
#X obj 2359 3653 moses 40;
#X obj 2359 3699 moses 45;
#X obj 2489 3607 moses 45;
#X obj 2489 3653 moses 50;
#X obj 1325 3785 moses 50;
#X obj 1325 3831 moses 55;
#X obj 1448 3785 moses 55;
#X obj 1448 3831 moses 60;
#X obj 1567 3785 moses 60;
#X obj 1567 3831 moses 65;
#X obj 1691 3785 moses 65;
#X obj 1691 3831 moses 70;
#X obj 1810 3841 moses 70;
#X obj 1810 3887 moses 75;
#X obj 1933 3841 moses 75;
#X obj 1933 3887 moses 80;
#X obj 2052 3841 moses 80;
#X obj 2052 3887 moses 85;
#X obj 2176 3841 moses 85;
#X obj 2176 3887 moses 90;
#X obj 2038 3984 change;
#X obj 2053 4107 change;
#X msg 2006 4031 0;
#X msg 2006 4070 1;
#X obj 2153 3984 change;
#X obj 2168 4107 change;
#X msg 2121 4031 0;
#X msg 2121 4070 1;
#X obj 2038 4031 moses 90;
#X obj 2038 4077 moses 95;
#X obj 2153 4031 moses 95;
#X obj 419 1199 route bouton3 sliderSat2 sliderLight2 sliderOne1 sliderTwo1 sliderThree1 sliderGrow3 sliderBloom3 encoder2 \;;
#X obj 2153 4077 moses 101;
#X text 1361 3101 feuille;
#X text 1002 3963 tronc;
#X text 962 1946 branche;
#X obj 2344 3932 oscformat /vkb_midi/0/note/48, f 28;
#X obj 2573 3947 oscformat /vkb_midi/0/note/49;
#X obj 2481 4148 oscformat /vkb_midi/0/note/50, f 26;
#X obj 2597 4412 oscformat /vkb_midi/0/note/52, f 26;
#X msg 2066 2698 127;
#X floatatom 2022 2743 7 0 0 0 - - - 16;
#X msg 2240 2722 127;
#X floatatom 2228 2759 7 0 0 0 - - - 16;
#X msg 2126 2932 127;
#X floatatom 2114 2969 7 0 0 0 - - - 16;
#X obj 2155 2592 t a b;
#X obj 2146 2410 change;
#X msg 1964 2706 0;
#X msg 1939 2767 64;
#X obj 2138 3096 spigot 1;
#X obj 2209 3125 tgl 25 0 empty empty empty 17 7 0 10 #e4e4e4 #4d4d4d #373737 0 1;
#X obj 2209 3065 loadbang;
#X msg 2209 3090 1;
#X obj 2244 2905 spigot 1;
#X obj 2332 2903 tgl 25 0 empty empty empty 17 7 0 10 #e4e4e4 #4d4d4d #373737 0 1;
#X obj 2332 2843 loadbang;
#X msg 2332 2868 1;
#X obj 1939 2927 spigot 1;
#X obj 2006 2910 tgl 25 0 empty empty empty 17 7 0 10 #e4e4e4 #4d4d4d #373737 0 1;
#X obj 2006 2850 loadbang;
#X msg 2006 2875 1;
#X msg 2495 2895 127;
#X floatatom 2451 2940 7 0 0 0 - - - 16;
#X msg 2555 3129 127;
#X floatatom 2543 3166 7 0 0 0 - - - 16;
#X msg 2393 2903 0;
#X msg 2368 2964 64;
#X obj 2533 3262 spigot 1;
#X obj 2638 3322 tgl 25 0 empty empty empty 17 7 0 10 #e4e4e4 #4d4d4d #373737 0 1;
#X obj 2638 3262 loadbang;
#X msg 2638 3287 1;
#X obj 2347 3109 spigot 1;
#X obj 2435 3107 tgl 25 0 empty empty empty 17 7 0 10 #e4e4e4 #4d4d4d #373737 0 1;
#X obj 2435 3047 loadbang;
#X msg 2435 3072 1;
#X msg 2242 3196 127;
#X floatatom 2230 3233 7 0 0 0 - - - 16;
#X obj 2254 3360 spigot 1;
#X obj 2325 3389 tgl 25 0 empty empty empty 17 7 0 10 #e4e4e4 #4d4d4d #373737 0 1;
#X obj 2325 3329 loadbang;
#X msg 2325 3354 1;
#X obj 2155 2618 random 7;
#X obj 2155 2646 sel 0 1 2 3 4 5 6 7;
#X obj 2161 2533 change;
#X msg 2114 2457 0;
#X msg 2114 2496 1;
#X obj 1165 2400 change;
#X obj 1180 2523 change;
#X msg 1133 2447 0;
#X msg 1133 2486 1;
#X obj 1288 2400 change;
#X obj 1303 2523 change;
#X msg 1256 2447 0;
#X msg 1256 2486 1;
#X obj 1407 2400 change;
#X obj 1422 2523 change;
#X msg 1375 2447 0;
#X msg 1375 2486 1;
#X obj 1531 2400 change;
#X obj 1546 2523 change;
#X msg 1499 2447 0;
#X msg 1499 2486 1;
#X obj 1650 2456 change;
#X obj 1665 2579 change;
#X msg 1618 2503 0;
#X msg 1618 2542 1;
#X obj 1773 2456 change;
#X obj 1788 2579 change;
#X msg 1741 2503 0;
#X msg 1741 2542 1;
#X obj 1892 2456 change;
#X obj 1907 2579 change;
#X msg 1860 2503 0;
#X msg 1860 2542 1;
#X obj 2016 2456 change;
#X obj 2031 2579 change;
#X msg 1984 2503 0;
#X msg 1984 2542 1;
#X obj 982 2588 change;
#X obj 997 2711 change;
#X msg 950 2635 0;
#X msg 950 2674 1;
#X obj 1105 2588 change;
#X obj 1120 2711 change;
#X msg 1073 2635 0;
#X msg 1073 2674 1;
#X obj 1224 2588 change;
#X obj 1239 2711 change;
#X msg 1192 2635 0;
#X msg 1192 2674 1;
#X obj 1348 2588 change;
#X obj 1363 2711 change;
#X msg 1316 2635 0;
#X msg 1316 2674 1;
#X obj 1467 2644 change;
#X obj 1482 2767 change;
#X msg 1435 2691 0;
#X msg 1435 2730 1;
#X obj 1590 2644 change;
#X obj 1605 2767 change;
#X msg 1558 2691 0;
#X msg 1558 2730 1;
#X obj 1709 2644 change;
#X obj 1724 2767 change;
#X msg 1677 2691 0;
#X msg 1677 2730 1;
#X obj 1833 2644 change;
#X obj 1848 2767 change;
#X msg 1801 2691 0;
#X msg 1801 2730 1;
#X obj 1035 2390 change;
#X obj 1050 2513 change;
#X msg 1003 2437 0;
#X msg 1003 2476 1;
#X obj 1035 2437 moses 0;
#X obj 1035 2483 moses 5;
#X obj 1165 2447 moses 5;
#X obj 1165 2493 moses 10;
#X obj 1288 2447 moses 10;
#X obj 1288 2493 moses 15;
#X obj 1407 2447 moses 15;
#X obj 1407 2493 moses 20;
#X obj 1531 2447 moses 20;
#X obj 1531 2493 moses 25;
#X obj 1650 2503 moses 25;
#X obj 1650 2536 moses 30;
#X obj 1773 2503 moses 30;
#X obj 1774 2542 moses 35;
#X obj 1892 2503 moses 35;
#X obj 1892 2549 moses 40;
#X obj 2016 2503 moses 40;
#X obj 2016 2549 moses 45;
#X obj 2146 2457 moses 45;
#X obj 2146 2503 moses 50;
#X obj 982 2635 moses 50;
#X obj 982 2681 moses 55;
#X obj 1105 2635 moses 55;
#X obj 1105 2681 moses 60;
#X obj 1224 2635 moses 60;
#X obj 1224 2681 moses 65;
#X obj 1348 2635 moses 65;
#X obj 1348 2681 moses 70;
#X obj 1467 2691 moses 70;
#X obj 1467 2737 moses 75;
#X obj 1590 2691 moses 75;
#X obj 1590 2737 moses 80;
#X obj 1709 2691 moses 80;
#X obj 1709 2737 moses 85;
#X obj 1833 2691 moses 85;
#X obj 1833 2737 moses 90;
#X obj 1695 2834 change;
#X obj 1710 2957 change;
#X msg 1663 2881 0;
#X msg 1663 2920 1;
#X obj 1810 2834 change;
#X obj 1825 2957 change;
#X msg 1778 2881 0;
#X msg 1778 2920 1;
#X obj 1695 2881 moses 90;
#X obj 1695 2927 moses 95;
#X obj 1810 2881 moses 95;
#X obj 1810 2927 moses 101;
#X obj 930 1997 scale 0 1 95 50;
#X obj 1184 1975 scale 0 1 0 100;
#X obj 2773 4129 oscformat /vkb_midi/0/note/51, f 28;
#X obj 2910 4345 oscformat /vkb_midi/0/note/53, f 26;
#X msg 2794 4479 127;
#X floatatom 2782 4516 7 0 0 0 - - - 16;
#X obj 2772 4612 spigot 1;
#X obj 2877 4672 tgl 25 0 empty empty empty 17 7 0 10 #e4e4e4 #4d4d4d #373737 0 1;
#X obj 2877 4612 loadbang;
#X msg 2877 4637 1;
#X obj 2806 4545 oscformat /vkb_midi/0/note/54, f 26;
#X obj 2001 2782 oscformat /vkb_midi/0/note/27, f 28;
#X obj 2230 2797 oscformat /vkb_midi/0/note/28;
#X obj 2138 2998 oscformat /vkb_midi/0/note/29, f 26;
#X obj 2430 2979 oscformat /vkb_midi/0/note/30, f 28;
#X obj 2254 3262 oscformat /vkb_midi/0/note/31, f 26;
#X obj 2567 3195 oscformat /vkb_midi/0/note/32, f 26;
#X msg 2276 210 1;
#X obj 2358 65 bng 25 250 50 0 empty empty empty 17 7 0 10 #e4e4e4 #4d4d4d #373737;
#X connect 7 0 23 0;
#X connect 11 0 23 0;
#X connect 14 0 58 0;
#X connect 16 0 18 0;
#X connect 17 0 16 1;
#X connect 20 0 50 0;
#X connect 21 0 28 0;
#X connect 23 0 47 0;
#X connect 23 0 26 0;
#X connect 23 1 6 0;
#X connect 29 0 31 0;
#X connect 31 0 16 0;
#X connect 31 0 39 0;
#X connect 32 0 33 0;
#X connect 33 0 28 0;
#X connect 37 0 40 0;
#X connect 38 0 41 0;
#X connect 39 0 34 0;
#X connect 39 1 35 0;
#X connect 39 2 36 0;
#X connect 40 0 46 0;
#X connect 41 0 46 0;
#X connect 46 0 23 0;
#X connect 46 1 24 0;
#X connect 47 0 49 0;
#X connect 47 1 25 0;
#X connect 49 0 29 0;
#X connect 49 0 32 0;
#X connect 49 0 55 0;
#X connect 49 1 27 0;
#X connect 50 0 28 0;
#X connect 52 0 57 0;
#X connect 53 0 54 0;
#X connect 55 0 56 0;
#X connect 56 0 54 0;
#X connect 57 0 54 0;
#X connect 58 0 23 0;
#X connect 59 0 60 0;
#X connect 59 0 67 0;
#X connect 60 0 66 0;
#X connect 62 0 61 0;
#X connect 63 0 61 0;
#X connect 64 0 63 0;
#X connect 65 0 61 0;
#X connect 66 0 626 0;
#X connect 67 0 60 0;
#X connect 68 0 83 0;
#X connect 69 0 84 0;
#X connect 70 0 172 0;
#X connect 72 0 71 0;
#X connect 73 0 72 0;
#X connect 74 0 169 0;
#X connect 75 0 171 0;
#X connect 76 0 170 0;
#X connect 77 0 132 0;
#X connect 78 0 162 0;
#X connect 78 0 176 0;
#X connect 78 0 366 0;
#X connect 78 0 370 0;
#X connect 78 0 374 0;
#X connect 78 0 378 0;
#X connect 78 0 382 0;
#X connect 78 0 386 0;
#X connect 78 0 390 0;
#X connect 78 0 414 0;
#X connect 78 0 418 0;
#X connect 78 0 422 0;
#X connect 78 0 410 0;
#X connect 78 0 360 0;
#X connect 78 0 458 0;
#X connect 78 0 438 0;
#X connect 78 0 434 0;
#X connect 78 0 430 0;
#X connect 78 0 426 0;
#X connect 79 0 798 0;
#X connect 79 0 799 0;
#X connect 80 0 746 0;
#X connect 80 0 686 0;
#X connect 80 0 690 0;
#X connect 80 0 694 0;
#X connect 80 0 698 0;
#X connect 80 0 702 0;
#X connect 80 0 706 0;
#X connect 80 0 710 0;
#X connect 80 0 642 0;
#X connect 80 0 714 0;
#X connect 80 0 718 0;
#X connect 80 0 722 0;
#X connect 80 0 726 0;
#X connect 80 0 730 0;
#X connect 80 0 734 0;
#X connect 80 0 738 0;
#X connect 80 0 742 0;
#X connect 80 0 786 0;
#X connect 80 0 790 0;
#X connect 81 0 174 0;
#X connect 82 0 173 0;
#X connect 82 0 575 0;
#X connect 82 0 511 0;
#X connect 82 0 515 0;
#X connect 82 0 519 0;
#X connect 82 0 523 0;
#X connect 82 0 527 0;
#X connect 82 0 531 0;
#X connect 82 0 535 0;
#X connect 82 0 539 0;
#X connect 82 0 543 0;
#X connect 82 0 547 0;
#X connect 82 0 551 0;
#X connect 82 0 555 0;
#X connect 82 0 559 0;
#X connect 82 0 563 0;
#X connect 82 0 567 0;
#X connect 82 0 571 0;
#X connect 82 0 471 0;
#X connect 82 0 615 0;
#X connect 82 0 619 0;
#X connect 83 0 69 0;
#X connect 84 0 195 0;
#X connect 87 0 168 0;
#X connect 88 0 167 0;
#X connect 89 0 93 0;
#X connect 90 0 143 0;
#X connect 92 0 90 0;
#X connect 93 0 94 0;
#X connect 94 0 100 0;
#X connect 94 0 113 0;
#X connect 94 0 92 0;
#X connect 94 0 129 0;
#X connect 94 0 97 0;
#X connect 94 0 164 0;
#X connect 95 0 355 0;
#X connect 96 0 95 0;
#X connect 97 0 131 0;
#X connect 98 0 354 0;
#X connect 99 0 131 0;
#X connect 100 0 101 0;
#X connect 101 0 128 0;
#X connect 103 0 175 0;
#X connect 104 0 116 0;
#X connect 104 0 310 0;
#X connect 108 0 111 0;
#X connect 109 0 112 0;
#X connect 110 0 109 0;
#X connect 111 0 110 0;
#X connect 112 0 207 0;
#X connect 113 0 111 0;
#X connect 116 0 203 0;
#X connect 120 0 121 0;
#X connect 121 0 299 0;
#X connect 122 0 123 0;
#X connect 123 0 276 0;
#X connect 124 0 125 0;
#X connect 125 0 263 0;
#X connect 126 0 162 0;
#X connect 126 1 297 0;
#X connect 128 0 235 0;
#X connect 129 0 130 0;
#X connect 130 0 96 0;
#X connect 131 0 98 0;
#X connect 132 0 78 0;
#X connect 133 0 145 0;
#X connect 134 0 146 0;
#X connect 135 0 160 0;
#X connect 136 0 144 0;
#X connect 136 0 152 0;
#X connect 136 0 161 0;
#X connect 136 1 153 0;
#X connect 136 1 154 0;
#X connect 136 1 155 0;
#X connect 136 2 156 0;
#X connect 136 2 157 0;
#X connect 136 2 158 0;
#X connect 137 0 147 0;
#X connect 138 0 148 0;
#X connect 139 0 149 0;
#X connect 140 0 159 0;
#X connect 141 0 150 0;
#X connect 142 0 151 0;
#X connect 143 0 231 0;
#X connect 144 0 133 0;
#X connect 145 0 215 0;
#X connect 146 0 219 0;
#X connect 147 0 239 0;
#X connect 148 0 243 0;
#X connect 149 0 247 0;
#X connect 150 0 255 0;
#X connect 151 0 259 0;
#X connect 152 0 134 0;
#X connect 153 0 137 0;
#X connect 154 0 138 0;
#X connect 155 0 139 0;
#X connect 156 0 140 0;
#X connect 157 0 141 0;
#X connect 158 0 142 0;
#X connect 159 0 251 0;
#X connect 160 0 223 0;
#X connect 161 0 135 0;
#X connect 162 0 187 0;
#X connect 163 0 199 0;
#X connect 164 0 136 0;
#X connect 164 1 166 0;
#X connect 165 0 164 0;
#X connect 166 0 164 0;
#X connect 166 1 165 0;
#X connect 167 0 211 0;
#X connect 168 0 88 0;
#X connect 169 0 179 0;
#X connect 170 0 183 0;
#X connect 171 0 76 0;
#X connect 172 0 74 0;
#X connect 173 0 191 0;
#X connect 174 0 82 0;
#X connect 175 0 104 0;
#X connect 176 0 408 0;
#X connect 177 0 121 0;
#X connect 178 0 121 0;
#X connect 179 0 71 0;
#X connect 180 0 179 1;
#X connect 181 0 182 0;
#X connect 182 0 180 0;
#X connect 183 0 71 0;
#X connect 184 0 183 1;
#X connect 185 0 186 0;
#X connect 186 0 184 0;
#X connect 187 0 71 0;
#X connect 188 0 187 1;
#X connect 189 0 190 0;
#X connect 190 0 188 0;
#X connect 191 0 71 0;
#X connect 192 0 191 1;
#X connect 193 0 194 0;
#X connect 194 0 192 0;
#X connect 195 0 71 0;
#X connect 196 0 195 1;
#X connect 197 0 198 0;
#X connect 198 0 196 0;
#X connect 199 0 71 0;
#X connect 200 0 199 1;
#X connect 201 0 202 0;
#X connect 202 0 200 0;
#X connect 203 0 71 0;
#X connect 204 0 203 1;
#X connect 205 0 206 0;
#X connect 206 0 204 0;
#X connect 207 0 71 0;
#X connect 208 0 207 1;
#X connect 209 0 210 0;
#X connect 210 0 208 0;
#X connect 211 0 71 0;
#X connect 212 0 211 1;
#X connect 213 0 214 0;
#X connect 214 0 212 0;
#X connect 215 0 71 0;
#X connect 216 0 215 1;
#X connect 217 0 218 0;
#X connect 218 0 216 0;
#X connect 219 0 71 0;
#X connect 220 0 219 1;
#X connect 221 0 222 0;
#X connect 222 0 220 0;
#X connect 223 0 71 0;
#X connect 224 0 223 1;
#X connect 225 0 226 0;
#X connect 226 0 224 0;
#X connect 227 0 71 0;
#X connect 228 0 227 1;
#X connect 229 0 230 0;
#X connect 230 0 228 0;
#X connect 231 0 71 0;
#X connect 232 0 231 1;
#X connect 233 0 234 0;
#X connect 234 0 232 0;
#X connect 235 0 71 0;
#X connect 236 0 235 1;
#X connect 237 0 238 0;
#X connect 238 0 236 0;
#X connect 239 0 71 0;
#X connect 240 0 239 1;
#X connect 241 0 242 0;
#X connect 242 0 240 0;
#X connect 243 0 71 0;
#X connect 244 0 243 1;
#X connect 245 0 246 0;
#X connect 246 0 244 0;
#X connect 247 0 71 0;
#X connect 248 0 247 1;
#X connect 249 0 250 0;
#X connect 250 0 248 0;
#X connect 251 0 71 0;
#X connect 252 0 251 1;
#X connect 253 0 254 0;
#X connect 254 0 252 0;
#X connect 256 0 255 1;
#X connect 256 0 71 0;
#X connect 257 0 258 0;
#X connect 258 0 256 0;
#X connect 259 0 71 0;
#X connect 260 0 259 1;
#X connect 261 0 262 0;
#X connect 262 0 260 0;
#X connect 263 0 264 0;
#X connect 264 0 71 0;
#X connect 265 0 264 1;
#X connect 266 0 267 0;
#X connect 267 0 265 0;
#X connect 268 0 71 0;
#X connect 269 0 268 1;
#X connect 270 0 271 0;
#X connect 271 0 269 0;
#X connect 272 0 71 0;
#X connect 273 0 272 1;
#X connect 274 0 275 0;
#X connect 275 0 273 0;
#X connect 276 0 268 0;
#X connect 277 0 278 0;
#X connect 278 0 300 0;
#X connect 279 0 280 0;
#X connect 280 0 302 0;
#X connect 281 0 278 0;
#X connect 282 0 278 0;
#X connect 283 0 71 0;
#X connect 284 0 283 1;
#X connect 285 0 286 0;
#X connect 286 0 284 0;
#X connect 287 0 71 0;
#X connect 288 0 287 1;
#X connect 289 0 290 0;
#X connect 290 0 288 0;
#X connect 291 0 292 0;
#X connect 292 0 301 0;
#X connect 293 0 71 0;
#X connect 294 0 293 1;
#X connect 295 0 296 0;
#X connect 296 0 294 0;
#X connect 297 0 298 0;
#X connect 298 0 120 0;
#X connect 298 1 122 0;
#X connect 298 2 124 0;
#X connect 298 3 277 0;
#X connect 298 5 291 0;
#X connect 298 6 279 0;
#X connect 299 0 272 0;
#X connect 300 0 287 0;
#X connect 301 0 293 0;
#X connect 302 0 283 0;
#X connect 303 0 304 0;
#X connect 304 0 349 0;
#X connect 305 0 306 0;
#X connect 306 0 326 0;
#X connect 307 0 308 0;
#X connect 308 0 313 0;
#X connect 309 1 347 0;
#X connect 310 0 353 0;
#X connect 311 0 304 0;
#X connect 312 0 304 0;
#X connect 313 0 314 0;
#X connect 315 0 314 1;
#X connect 316 0 317 0;
#X connect 317 0 315 0;
#X connect 319 0 318 1;
#X connect 320 0 321 0;
#X connect 321 0 319 0;
#X connect 323 0 322 1;
#X connect 324 0 325 0;
#X connect 325 0 323 0;
#X connect 326 0 318 0;
#X connect 327 0 328 0;
#X connect 328 0 350 0;
#X connect 329 0 330 0;
#X connect 330 0 352 0;
#X connect 331 0 328 0;
#X connect 332 0 328 0;
#X connect 334 0 333 1;
#X connect 335 0 336 0;
#X connect 336 0 334 0;
#X connect 338 0 337 1;
#X connect 339 0 340 0;
#X connect 340 0 338 0;
#X connect 341 0 342 0;
#X connect 342 0 351 0;
#X connect 344 0 343 1;
#X connect 345 0 346 0;
#X connect 346 0 344 0;
#X connect 347 0 348 0;
#X connect 348 0 303 0;
#X connect 348 1 305 0;
#X connect 348 2 307 0;
#X connect 348 3 327 0;
#X connect 348 5 341 0;
#X connect 348 6 329 0;
#X connect 349 0 322 0;
#X connect 350 0 337 0;
#X connect 351 0 343 0;
#X connect 352 0 333 0;
#X connect 353 0 309 0;
#X connect 354 0 130 0;
#X connect 355 0 227 0;
#X connect 356 0 46 0;
#X connect 356 0 15 0;
#X connect 357 0 126 0;
#X connect 358 0 357 0;
#X connect 359 0 357 0;
#X connect 360 0 361 0;
#X connect 361 0 364 0;
#X connect 361 1 362 0;
#X connect 362 0 365 0;
#X connect 362 1 364 0;
#X connect 363 0 126 0;
#X connect 364 0 363 0;
#X connect 365 0 363 0;
#X connect 366 0 401 0;
#X connect 367 0 126 0;
#X connect 368 0 367 0;
#X connect 369 0 367 0;
#X connect 370 0 402 0;
#X connect 371 0 126 0;
#X connect 372 0 371 0;
#X connect 373 0 371 0;
#X connect 374 0 403 0;
#X connect 375 0 126 0;
#X connect 376 0 375 0;
#X connect 377 0 375 0;
#X connect 378 0 404 0;
#X connect 379 0 126 0;
#X connect 380 0 379 0;
#X connect 381 0 379 0;
#X connect 382 0 405 0;
#X connect 383 0 126 0;
#X connect 384 0 383 0;
#X connect 385 0 383 0;
#X connect 386 0 406 0;
#X connect 387 0 126 0;
#X connect 388 0 387 0;
#X connect 389 0 387 0;
#X connect 390 0 407 0;
#X connect 391 0 126 0;
#X connect 392 0 391 0;
#X connect 393 0 391 0;
#X connect 394 0 369 0;
#X connect 394 1 368 0;
#X connect 395 0 373 0;
#X connect 395 1 372 0;
#X connect 396 0 377 0;
#X connect 396 1 376 0;
#X connect 397 0 381 0;
#X connect 397 1 380 0;
#X connect 398 0 385 0;
#X connect 398 1 384 0;
#X connect 399 0 389 0;
#X connect 399 1 388 0;
#X connect 400 0 393 0;
#X connect 400 1 392 0;
#X connect 401 0 368 0;
#X connect 401 1 394 0;
#X connect 402 0 372 0;
#X connect 402 1 395 0;
#X connect 403 0 376 0;
#X connect 403 1 396 0;
#X connect 404 0 380 0;
#X connect 404 1 397 0;
#X connect 405 0 384 0;
#X connect 405 1 398 0;
#X connect 406 0 388 0;
#X connect 406 1 399 0;
#X connect 407 0 392 0;
#X connect 407 1 400 0;
#X connect 408 0 358 0;
#X connect 408 1 409 0;
#X connect 409 0 359 0;
#X connect 409 1 358 0;
#X connect 410 0 442 0;
#X connect 411 0 126 0;
#X connect 412 0 411 0;
#X connect 413 0 411 0;
#X connect 414 0 451 0;
#X connect 415 0 126 0;
#X connect 416 0 415 0;
#X connect 417 0 415 0;
#X connect 418 0 452 0;
#X connect 419 0 126 0;
#X connect 420 0 419 0;
#X connect 421 0 419 0;
#X connect 422 0 453 0;
#X connect 423 0 126 0;
#X connect 424 0 423 0;
#X connect 425 0 423 0;
#X connect 426 0 454 0;
#X connect 427 0 126 0;
#X connect 428 0 427 0;
#X connect 429 0 427 0;
#X connect 430 0 455 0;
#X connect 431 0 126 0;
#X connect 432 0 431 0;
#X connect 433 0 431 0;
#X connect 434 0 456 0;
#X connect 435 0 126 0;
#X connect 436 0 435 0;
#X connect 437 0 435 0;
#X connect 438 0 457 0;
#X connect 439 0 126 0;
#X connect 440 0 439 0;
#X connect 441 0 439 0;
#X connect 442 0 412 0;
#X connect 442 1 443 0;
#X connect 443 0 413 0;
#X connect 443 1 412 0;
#X connect 444 0 417 0;
#X connect 444 1 416 0;
#X connect 445 0 421 0;
#X connect 445 1 420 0;
#X connect 446 0 425 0;
#X connect 446 1 424 0;
#X connect 447 0 429 0;
#X connect 447 1 428 0;
#X connect 448 0 433 0;
#X connect 448 1 432 0;
#X connect 449 0 437 0;
#X connect 449 1 436 0;
#X connect 450 0 441 0;
#X connect 450 1 440 0;
#X connect 451 0 416 0;
#X connect 451 1 444 0;
#X connect 452 0 420 0;
#X connect 452 1 445 0;
#X connect 453 0 424 0;
#X connect 453 1 446 0;
#X connect 454 0 428 0;
#X connect 454 1 447 0;
#X connect 455 0 432 0;
#X connect 455 1 448 0;
#X connect 456 0 436 0;
#X connect 456 1 449 0;
#X connect 457 0 440 0;
#X connect 457 1 450 0;
#X connect 458 0 462 0;
#X connect 459 0 126 0;
#X connect 460 0 459 0;
#X connect 461 0 459 0;
#X connect 462 0 460 0;
#X connect 462 1 463 0;
#X connect 463 0 461 0;
#X connect 463 1 460 0;
#X connect 464 0 465 0;
#X connect 465 0 631 0;
#X connect 466 0 467 0;
#X connect 467 0 632 0;
#X connect 468 0 469 0;
#X connect 469 0 633 0;
#X connect 470 1 506 0;
#X connect 471 0 597 0;
#X connect 472 0 465 0;
#X connect 473 0 465 0;
#X connect 474 0 71 0;
#X connect 475 0 474 1;
#X connect 476 0 477 0;
#X connect 477 0 475 0;
#X connect 478 0 71 0;
#X connect 479 0 478 1;
#X connect 480 0 481 0;
#X connect 481 0 479 0;
#X connect 482 0 71 0;
#X connect 483 0 482 1;
#X connect 484 0 485 0;
#X connect 485 0 483 0;
#X connect 486 0 487 0;
#X connect 487 0 800 0;
#X connect 488 0 489 0;
#X connect 489 0 801 0;
#X connect 490 0 487 0;
#X connect 491 0 487 0;
#X connect 492 0 71 0;
#X connect 493 0 492 1;
#X connect 494 0 495 0;
#X connect 495 0 493 0;
#X connect 496 0 71 0;
#X connect 497 0 496 1;
#X connect 498 0 499 0;
#X connect 499 0 497 0;
#X connect 500 0 501 0;
#X connect 501 0 634 0;
#X connect 502 0 71 0;
#X connect 503 0 502 1;
#X connect 504 0 505 0;
#X connect 505 0 503 0;
#X connect 506 0 507 0;
#X connect 507 0 464 0;
#X connect 507 1 466 0;
#X connect 507 2 468 0;
#X connect 507 3 486 0;
#X connect 507 4 802 0;
#X connect 507 5 500 0;
#X connect 507 6 488 0;
#X connect 508 0 470 0;
#X connect 509 0 508 0;
#X connect 510 0 508 0;
#X connect 511 0 581 0;
#X connect 512 0 470 0;
#X connect 513 0 512 0;
#X connect 514 0 512 0;
#X connect 515 0 583 0;
#X connect 516 0 470 0;
#X connect 517 0 516 0;
#X connect 518 0 516 0;
#X connect 519 0 585 0;
#X connect 520 0 470 0;
#X connect 521 0 520 0;
#X connect 522 0 520 0;
#X connect 523 0 587 0;
#X connect 524 0 470 0;
#X connect 525 0 524 0;
#X connect 526 0 524 0;
#X connect 527 0 589 0;
#X connect 528 0 470 0;
#X connect 529 0 528 0;
#X connect 530 0 528 0;
#X connect 531 0 591 0;
#X connect 532 0 470 0;
#X connect 533 0 532 0;
#X connect 534 0 532 0;
#X connect 535 0 593 0;
#X connect 536 0 470 0;
#X connect 537 0 536 0;
#X connect 538 0 536 0;
#X connect 539 0 595 0;
#X connect 540 0 470 0;
#X connect 541 0 540 0;
#X connect 542 0 540 0;
#X connect 543 0 599 0;
#X connect 544 0 470 0;
#X connect 545 0 544 0;
#X connect 546 0 544 0;
#X connect 547 0 601 0;
#X connect 548 0 470 0;
#X connect 549 0 548 0;
#X connect 550 0 548 0;
#X connect 551 0 603 0;
#X connect 552 0 470 0;
#X connect 553 0 552 0;
#X connect 554 0 552 0;
#X connect 555 0 605 0;
#X connect 556 0 470 0;
#X connect 557 0 556 0;
#X connect 558 0 556 0;
#X connect 559 0 607 0;
#X connect 560 0 470 0;
#X connect 561 0 560 0;
#X connect 562 0 560 0;
#X connect 563 0 609 0;
#X connect 564 0 470 0;
#X connect 565 0 564 0;
#X connect 566 0 564 0;
#X connect 567 0 611 0;
#X connect 568 0 470 0;
#X connect 569 0 568 0;
#X connect 570 0 568 0;
#X connect 571 0 613 0;
#X connect 572 0 470 0;
#X connect 573 0 572 0;
#X connect 574 0 572 0;
#X connect 575 0 579 0;
#X connect 576 0 470 0;
#X connect 577 0 576 0;
#X connect 578 0 576 0;
#X connect 579 0 577 0;
#X connect 579 1 580 0;
#X connect 580 0 578 0;
#X connect 580 1 577 0;
#X connect 581 0 513 0;
#X connect 581 1 582 0;
#X connect 582 0 514 0;
#X connect 582 1 513 0;
#X connect 583 0 517 0;
#X connect 583 1 584 0;
#X connect 584 0 518 0;
#X connect 584 1 517 0;
#X connect 585 0 521 0;
#X connect 585 1 586 0;
#X connect 586 0 522 0;
#X connect 586 1 521 0;
#X connect 587 0 525 0;
#X connect 587 1 588 0;
#X connect 588 0 526 0;
#X connect 588 1 525 0;
#X connect 589 0 529 0;
#X connect 589 1 590 0;
#X connect 590 0 530 0;
#X connect 590 1 529 0;
#X connect 591 0 533 0;
#X connect 591 1 592 0;
#X connect 592 0 534 0;
#X connect 592 1 533 0;
#X connect 593 0 537 0;
#X connect 593 1 594 0;
#X connect 594 0 538 0;
#X connect 594 1 537 0;
#X connect 595 0 541 0;
#X connect 595 1 596 0;
#X connect 596 0 542 0;
#X connect 596 1 541 0;
#X connect 597 0 509 0;
#X connect 597 1 598 0;
#X connect 598 0 510 0;
#X connect 598 1 509 0;
#X connect 599 0 545 0;
#X connect 599 1 600 0;
#X connect 600 0 546 0;
#X connect 600 1 545 0;
#X connect 601 0 549 0;
#X connect 601 1 602 0;
#X connect 602 0 550 0;
#X connect 602 1 549 0;
#X connect 603 0 553 0;
#X connect 603 1 604 0;
#X connect 604 0 554 0;
#X connect 604 1 553 0;
#X connect 605 0 557 0;
#X connect 605 1 606 0;
#X connect 606 0 558 0;
#X connect 606 1 557 0;
#X connect 607 0 561 0;
#X connect 607 1 608 0;
#X connect 608 0 562 0;
#X connect 608 1 561 0;
#X connect 609 0 565 0;
#X connect 609 1 610 0;
#X connect 610 0 566 0;
#X connect 610 1 565 0;
#X connect 611 0 569 0;
#X connect 611 1 612 0;
#X connect 612 0 570 0;
#X connect 612 1 569 0;
#X connect 613 0 573 0;
#X connect 613 1 614 0;
#X connect 614 0 574 0;
#X connect 614 1 573 0;
#X connect 615 0 623 0;
#X connect 616 0 470 0;
#X connect 617 0 616 0;
#X connect 618 0 616 0;
#X connect 619 0 625 0;
#X connect 620 0 470 0;
#X connect 621 0 620 0;
#X connect 622 0 620 0;
#X connect 623 0 617 0;
#X connect 623 1 624 0;
#X connect 624 0 618 0;
#X connect 624 1 617 0;
#X connect 625 0 621 0;
#X connect 625 1 627 0;
#X connect 626 0 89 0;
#X connect 626 1 70 0;
#X connect 626 2 75 0;
#X connect 626 3 81 0;
#X connect 626 4 79 0;
#X connect 626 5 77 0;
#X connect 626 6 103 0;
#X connect 626 7 87 0;
#X connect 626 8 68 0;
#X connect 627 0 622 0;
#X connect 627 1 621 0;
#X connect 631 0 482 0;
#X connect 632 0 478 0;
#X connect 633 0 474 0;
#X connect 634 0 502 0;
#X connect 635 0 636 0;
#X connect 636 0 809 0;
#X connect 637 0 638 0;
#X connect 638 0 810 0;
#X connect 639 0 640 0;
#X connect 640 0 811 0;
#X connect 641 1 677 0;
#X connect 642 0 768 0;
#X connect 643 0 636 0;
#X connect 644 0 636 0;
#X connect 645 0 71 0;
#X connect 646 0 645 1;
#X connect 647 0 648 0;
#X connect 648 0 646 0;
#X connect 649 0 71 0;
#X connect 650 0 649 1;
#X connect 651 0 652 0;
#X connect 652 0 650 0;
#X connect 653 0 71 0;
#X connect 654 0 653 1;
#X connect 655 0 656 0;
#X connect 656 0 654 0;
#X connect 657 0 658 0;
#X connect 658 0 812 0;
#X connect 659 0 660 0;
#X connect 660 0 814 0;
#X connect 661 0 658 0;
#X connect 662 0 658 0;
#X connect 663 0 71 0;
#X connect 664 0 663 1;
#X connect 665 0 666 0;
#X connect 666 0 664 0;
#X connect 667 0 71 0;
#X connect 668 0 667 1;
#X connect 669 0 670 0;
#X connect 670 0 668 0;
#X connect 671 0 672 0;
#X connect 672 0 813 0;
#X connect 673 0 71 0;
#X connect 674 0 673 1;
#X connect 675 0 676 0;
#X connect 676 0 674 0;
#X connect 677 0 678 0;
#X connect 678 0 635 0;
#X connect 678 1 637 0;
#X connect 678 2 639 0;
#X connect 678 3 657 0;
#X connect 678 5 671 0;
#X connect 678 6 659 0;
#X connect 679 0 641 0;
#X connect 680 0 679 0;
#X connect 681 0 679 0;
#X connect 682 0 752 0;
#X connect 683 0 641 0;
#X connect 684 0 683 0;
#X connect 685 0 683 0;
#X connect 686 0 754 0;
#X connect 687 0 641 0;
#X connect 688 0 687 0;
#X connect 689 0 687 0;
#X connect 690 0 756 0;
#X connect 691 0 641 0;
#X connect 692 0 691 0;
#X connect 693 0 691 0;
#X connect 694 0 758 0;
#X connect 695 0 641 0;
#X connect 696 0 695 0;
#X connect 697 0 695 0;
#X connect 698 0 760 0;
#X connect 699 0 641 0;
#X connect 700 0 699 0;
#X connect 701 0 699 0;
#X connect 702 0 762 0;
#X connect 703 0 641 0;
#X connect 704 0 703 0;
#X connect 705 0 703 0;
#X connect 706 0 764 0;
#X connect 707 0 641 0;
#X connect 708 0 707 0;
#X connect 709 0 707 0;
#X connect 710 0 766 0;
#X connect 711 0 641 0;
#X connect 712 0 711 0;
#X connect 713 0 711 0;
#X connect 714 0 770 0;
#X connect 715 0 641 0;
#X connect 716 0 715 0;
#X connect 717 0 715 0;
#X connect 718 0 772 0;
#X connect 719 0 641 0;
#X connect 720 0 719 0;
#X connect 721 0 719 0;
#X connect 722 0 774 0;
#X connect 723 0 641 0;
#X connect 724 0 723 0;
#X connect 725 0 723 0;
#X connect 726 0 776 0;
#X connect 727 0 641 0;
#X connect 728 0 727 0;
#X connect 729 0 727 0;
#X connect 730 0 778 0;
#X connect 731 0 641 0;
#X connect 732 0 731 0;
#X connect 733 0 731 0;
#X connect 734 0 780 0;
#X connect 735 0 641 0;
#X connect 736 0 735 0;
#X connect 737 0 735 0;
#X connect 738 0 782 0;
#X connect 739 0 641 0;
#X connect 740 0 739 0;
#X connect 741 0 739 0;
#X connect 742 0 784 0;
#X connect 743 0 641 0;
#X connect 744 0 743 0;
#X connect 745 0 743 0;
#X connect 746 0 750 0;
#X connect 747 0 641 0;
#X connect 748 0 747 0;
#X connect 749 0 747 0;
#X connect 750 0 748 0;
#X connect 750 1 751 0;
#X connect 751 0 749 0;
#X connect 751 1 748 0;
#X connect 752 0 684 0;
#X connect 752 1 753 0;
#X connect 753 0 685 0;
#X connect 753 1 684 0;
#X connect 754 0 688 0;
#X connect 754 1 755 0;
#X connect 755 0 689 0;
#X connect 755 1 688 0;
#X connect 756 0 692 0;
#X connect 756 1 757 0;
#X connect 757 0 693 0;
#X connect 757 1 692 0;
#X connect 758 0 696 0;
#X connect 758 1 759 0;
#X connect 759 0 697 0;
#X connect 759 1 696 0;
#X connect 760 0 700 0;
#X connect 760 1 761 0;
#X connect 761 0 701 0;
#X connect 761 1 700 0;
#X connect 762 0 704 0;
#X connect 762 1 763 0;
#X connect 763 0 705 0;
#X connect 763 1 704 0;
#X connect 764 0 708 0;
#X connect 764 1 765 0;
#X connect 765 0 709 0;
#X connect 765 1 708 0;
#X connect 766 0 712 0;
#X connect 766 1 767 0;
#X connect 767 0 713 0;
#X connect 767 1 712 0;
#X connect 768 0 680 0;
#X connect 768 1 769 0;
#X connect 769 0 681 0;
#X connect 769 1 680 0;
#X connect 770 0 716 0;
#X connect 770 1 771 0;
#X connect 771 0 717 0;
#X connect 771 1 716 0;
#X connect 772 0 720 0;
#X connect 772 1 773 0;
#X connect 773 0 721 0;
#X connect 773 1 720 0;
#X connect 774 0 724 0;
#X connect 774 1 775 0;
#X connect 775 0 725 0;
#X connect 775 1 724 0;
#X connect 776 0 728 0;
#X connect 776 1 777 0;
#X connect 777 0 729 0;
#X connect 777 1 728 0;
#X connect 778 0 732 0;
#X connect 778 1 779 0;
#X connect 779 0 733 0;
#X connect 779 1 732 0;
#X connect 780 0 736 0;
#X connect 780 1 781 0;
#X connect 781 0 737 0;
#X connect 781 1 736 0;
#X connect 782 0 740 0;
#X connect 782 1 783 0;
#X connect 783 0 741 0;
#X connect 783 1 740 0;
#X connect 784 0 744 0;
#X connect 784 1 785 0;
#X connect 785 0 745 0;
#X connect 785 1 744 0;
#X connect 786 0 794 0;
#X connect 787 0 641 0;
#X connect 788 0 787 0;
#X connect 789 0 787 0;
#X connect 790 0 796 0;
#X connect 791 0 641 0;
#X connect 792 0 791 0;
#X connect 793 0 791 0;
#X connect 794 0 788 0;
#X connect 794 1 795 0;
#X connect 795 0 789 0;
#X connect 795 1 788 0;
#X connect 796 0 792 0;
#X connect 796 1 797 0;
#X connect 797 0 793 0;
#X connect 797 1 792 0;
#X connect 798 0 163 0;
#X connect 799 0 80 0;
#X connect 799 0 682 0;
#X connect 800 0 496 0;
#X connect 801 0 492 0;
#X connect 802 0 803 0;
#X connect 803 0 808 0;
#X connect 804 0 71 0;
#X connect 805 0 804 1;
#X connect 806 0 807 0;
#X connect 807 0 805 0;
#X connect 808 0 804 0;
#X connect 809 0 653 0;
#X connect 810 0 649 0;
#X connect 811 0 645 0;
#X connect 812 0 667 0;
#X connect 813 0 673 0;
#X connect 814 0 663 0;
#X connect 815 0 93 0;
#X connect 816 0 815 0;
