#N canvas 827 239 527 327 12;
#X obj 86 74 netreceive -u -b 8002;
#X obj 86 114 oscparse;
#X obj 503 179 netsend -u -b;
#X msg 503 84 connect 127.0.0.1 8002;
#X obj 401 33 oscformat test;
#X floatatom 328 68 5 0 0 0 - - - 12;
#X msg 650 154 disconnect;
#X obj 86 156 list trim;
#X floatatom 86 220 5 0 0 0 - - - 12;
#X obj 86 189 route sliderR;
#X obj 86 329 netsend -u -b;
#X msg 255 300 connect 127.0.0.1 8003;
#X obj 255 252 loadbang;
#X obj 86 275 oscformat /master/volume;
#X connect 0 0 1 0;
#X connect 1 0 7 0;
#X connect 3 0 2 0;
#X connect 4 0 2 0;
#X connect 5 0 4 0;
#X connect 6 0 2 0;
#X connect 7 0 9 0;
#X connect 8 0 13 0;
#X connect 9 0 8 0;
#X connect 11 0 10 0;
#X connect 12 0 11 0;
#X connect 13 0 10 0;
