#N canvas 827 239 527 327 12;
#X obj 86 74 netreceive -u -b 8002;
#X obj 86 114 oscparse;
#X obj 503 179 netsend -u -b;
#X msg 503 84 connect 127.0.0.1 8002;
#X obj 401 33 oscformat test;
#X floatatom 328 68 5 0 0 0 - - - 12;
#X msg 650 154 disconnect;
#X obj 86 156 list trim;
#X floatatom 86 220 5 0 0 0 - - - 12;
#X obj 86 189 route /encoder /sliderR /sliderG /sliderB /sliderOne /sliderTwo /bouton;
#X obj 86 329 netsend -u -b;
#X msg 255 300 connect 127.0.0.1 8003;
#X obj 255 252 loadbang;
#X obj 86 275 oscformat /master/volume;
#X obj 220 120 expr if($v1 == -1, 0, if($v1 == 1, 1, $v1));
#X obj 220 160 expr $v1 / 9;
#X obj 220 200 expr $v1 / 9;
#X obj 220 240 expr $v1 / 9;
#X obj 220 280 expr $v1 / 3;
#X obj 220 320 expr $v1 / 3;
#X obj 220 360 sel 1;
#X obj 220 400 loadbang;
#X obj 220 440 float 0;
#X connect 0 0 1 0;
#X connect 1 0 7 0;
#X connect 1 0 8 0;
#X connect 1 0 9 0;
#X connect 1 0 10 0;
#X connect 1 0 11 0;
#X connect 7 0 12 0;
#X connect 8 0 12 0;
#X connect 9 0 12 0;
#X connect 10 0 12 0;
#X connect 11 0 12 0;
#X connect 12 0 13 0;
#X connect 13 0 14 0;
#X connect 14 0 16 0;
#X connect 16 0 17 0;
#X connect 17 0 18 0;
#X connect 18 0 19 0;
#X connect 19 0 20 0;
#X connect 20 0 21 0;
#X connect 21 0 22 0;
#X connect 22 0 23 0;
#X connect 23 0 24 0;
#X connect 24 0 25 0;
#X connect 25 0 26 0;
#X connect 26 0 27 0;
#X connect 27 0 28 0;
#X connect 28 0 29 0;
#X connect 29 0 30 0;
#X connect 30 0 31 0;
#X connect 31 0 32 0;
#X connect 32 0 33 0;
