#N canvas 827 239 527 327 12;
#X obj 86 33 netreceive -u -b 8002;
#X obj 86 114 oscparse;
#X obj 503 179 netsend -u -b;
#X msg 503 84 connect 127.0.0.1 8002;
#X obj 401 33 oscformat test;
#X floatatom 341 60 5 0 0 0 - - - 12;
#X msg 650 154 disconnect;
#X obj 86 156 list trim;
#X obj 124 76 bng 15 250 50 0 empty empty data 17 7 0 10 #fcfcfc #000000 #000000;
#X obj 86 179 route encoder sliderR sliderG sliderB sliderOne sliderTwo bouton \;;
#X floatatom 62 212 5 0 0 0 - - - 16;
#X obj 62 375 netsend -u -b;
#X msg 78 349 connect 127.0.0.1 8003;
#X obj 88 325 loadbang;
#X obj 62 303 oscformat /master/volume;
#X floatatom 62 272 5 0 0 0 - - - 16;
#X floatatom 132 422 5 0 0 0 - - - 16;
#X obj 132 585 netsend -u -b;
#X msg 148 559 connect 127.0.0.1 8003;
#X obj 158 535 loadbang;
#X obj 132 513 oscformat /master/volume;
#X floatatom 132 482 5 0 0 0 - - - 16;
#X floatatom 225 225 5 0 0 0 - - - 16;
#X obj 225 388 netsend -u -b;
#X msg 241 362 connect 127.0.0.1 8003;
#X obj 251 338 loadbang;
#X obj 225 316 oscformat /master/volume;
#X floatatom 225 285 5 0 0 0 - - - 16;
#X floatatom 326 422 5 0 0 0 - - - 16;
#X obj 326 585 netsend -u -b;
#X msg 342 559 connect 127.0.0.1 8003;
#X obj 352 535 loadbang;
#X obj 326 513 oscformat /master/volume;
#X floatatom 326 482 5 0 0 0 - - - 16;
#X floatatom 391 225 5 0 0 0 - - - 16;
#X obj 391 388 netsend -u -b;
#X msg 407 362 connect 127.0.0.1 8003;
#X obj 417 338 loadbang;
#X obj 391 316 oscformat /master/volume;
#X floatatom 391 285 5 0 0 0 - - - 16;
#X floatatom 533 438 5 0 0 0 - - - 16;
#X obj 533 601 netsend -u -b;
#X msg 549 575 connect 127.0.0.1 8003;
#X obj 559 551 loadbang;
#X obj 533 529 oscformat /master/volume;
#X floatatom 533 498 5 0 0 0 - - - 16;
#X floatatom 561 243 5 0 0 0 - - - 16;
#X obj 561 406 netsend -u -b;
#X msg 577 380 connect 127.0.0.1 8003;
#X obj 587 356 loadbang;
#X obj 561 334 oscformat /master/volume;
#X floatatom 561 303 5 0 0 0 - - - 16;
#X obj 62 243 scale 0 2 0 127;
#X obj 132 453 scale 0 9 0 127;
#X obj 225 256 scale 0 9 0 127;
#X obj 391 256 scale 0 3 0 127;
#X obj 326 453 scale 0 9 0 127;
#X obj 533 469 scale 0 1 0 127;
#X text 2 211 encoder;
#X text 206 133 encoder;
#X text 98 421 R;
#X text 195 224 G;
#X text 296 425 B;
#X text 358 224 one;
#X text 489 437 two;
#X text 508 242 bouton;
#X obj 561 274 scale 0 1 0 1;
#X connect 0 0 1 0;
#X connect 0 0 8 0;
#X connect 1 0 7 0;
#X connect 3 0 2 0;
#X connect 4 0 2 0;
#X connect 5 0 4 0;
#X connect 6 0 2 0;
#X connect 7 0 9 0;
#X connect 8 0 1 0;
#X connect 9 0 10 0;
#X connect 9 1 16 0;
#X connect 9 2 22 0;
#X connect 9 3 28 0;
#X connect 9 4 34 0;
#X connect 9 5 40 0;
#X connect 9 6 46 0;
#X connect 10 0 52 0;
#X connect 12 0 11 0;
#X connect 13 0 12 0;
#X connect 14 0 11 0;
#X connect 15 0 14 0;
#X connect 16 0 53 0;
#X connect 18 0 17 0;
#X connect 19 0 18 0;
#X connect 20 0 17 0;
#X connect 21 0 20 0;
#X connect 22 0 54 0;
#X connect 24 0 23 0;
#X connect 25 0 24 0;
#X connect 26 0 23 0;
#X connect 27 0 26 0;
#X connect 28 0 56 0;
#X connect 30 0 29 0;
#X connect 31 0 30 0;
#X connect 32 0 29 0;
#X connect 33 0 32 0;
#X connect 34 0 55 0;
#X connect 36 0 35 0;
#X connect 37 0 36 0;
#X connect 38 0 35 0;
#X connect 39 0 38 0;
#X connect 40 0 57 0;
#X connect 42 0 41 0;
#X connect 43 0 42 0;
#X connect 44 0 41 0;
#X connect 45 0 44 0;
#X connect 46 0 66 0;
#X connect 48 0 47 0;
#X connect 49 0 48 0;
#X connect 50 0 47 0;
#X connect 51 0 50 0;
#X connect 52 0 15 0;
#X connect 53 0 21 0;
#X connect 54 0 27 0;
#X connect 55 0 39 0;
#X connect 56 0 33 0;
#X connect 57 0 45 0;
#X connect 66 0 51 0;
