#N canvas 0 0 450 300 10;
#X obj netreceive -u -b 7001;
#X obj netreceive -u -b 7002;
#X obj netreceive -u -b 7003;
#X obj netsend -u -b;
#X msg 192.168.1.2 8001;
#X obj list prepend;
#X obj list trim;
#X obj route 7001 7002 7003;
#X connect 0 0 7 0;
#X connect 1 0 7 0;
#X connect 2 0 7 0;
#X connect 7 0 5 0;
#X connect 5 0 6 0;
#X connect 6 0 3 0;
#X connect 4 0 3 0;
