#N canvas 0 0 450 300 10;
#X obj 225 96 cnv 15 200 60 empty empty RECEIVE_BYTES(LIST)_FROM_UDP 0 -10 0 14 #fcfcc4 #404040 0;
#X obj 271 131 bng 15 250 50 0 empty empty data 17 7 0 10 #fcfcfc #000000 #000000;
#X obj 247 102 netreceive -u -b 7001;
#X obj 463 96 cnv 15 200 60 empty empty RECEIVE_BYTES(LIST)_FROM_UDP 0 -10 0 14 #fcfcc4 #404040 0;
#X obj 509 131 bng 15 250 50 0 empty empty data 17 7 0 10 #fcfcfc #000000 #000000;
#X obj 692 96 cnv 15 200 60 empty empty RECEIVE_BYTES(LIST)_FROM_UDP 0 -10 0 14 #fcfcc4 #404040 0;
#X obj 738 131 bng 15 250 50 0 empty empty data 17 7 0 10 #fcfcfc #000000 #000000;
#X obj 485 102 netreceive -u -b 7002;
#X obj 714 102 netreceive -u -b 7003;
#X obj 225 274 cnv 15 350 200 empty empty SEND_BYTES(LIST)_TO_UDP 0 -10 0 14 #fcfcc4 #404040 0;
#X obj 314 319 loadbang;
#X msg 353 394 disconnect;
#X obj 237 431 netsend -u -b;
#X obj 237 286 list prepend send;
#X obj 237 312 list trim;
#X msg 314 351 connect 192.168.1.114 7004;
#X connect 2 0 1 0;
#X connect 2 0 13 0;
#X connect 7 0 4 0;
#X connect 7 0 13 0;
#X connect 8 0 6 0;
#X connect 8 0 13 0;
#X connect 10 0 15 0;
#X connect 11 0 12 0;
#X connect 13 0 14 0;
#X connect 14 0 12 0;
#X connect 15 0 12 0;
