#N canvas 0 0 450 300 10;
#X obj 225 96 cnv 15 200 60 empty empty RECEIVE_BYTES(LIST)_FROM_UDP 0 -10 0 14 #fcfcc4 #404040 0;
#X obj 271 131 bng 15 250 50 0 empty empty data 17 7 0 10 #fcfcfc #000000 #000000;
#X obj 247 102 netreceive -u -b 7001;
#X obj 463 96 cnv 15 200 60 empty empty RECEIVE_BYTES(LIST)_FROM_UDP 0 -10 0 14 #fcfcc4 #404040 0;
#X obj 509 131 bng 15 250 50 0 empty empty data 17 7 0 10 #fcfcfc #000000 #000000;
#X obj 692 96 cnv 15 200 60 empty empty RECEIVE_BYTES(LIST)_FROM_UDP 0 -10 0 14 #fcfcc4 #404040 0;
#X obj 738 131 bng 15 250 50 0 empty empty data 17 7 0 10 #fcfcfc #000000 #000000;
#X obj 485 102 netreceive -u -b 7002;
#X obj 714 102 netreceive -u -b 7003;
#X obj 225 274 cnv 15 350 200 empty empty SEND_BYTES(LIST)_TO_UDP 0 -10 0 14 #fcfcc4 #404040 0;
#X obj 314 319 loadbang;
#X msg 353 394 disconnect;
#X obj 237 431 netsend -u -b;
#X obj 592 274 cnv 15 350 200 empty empty SEND_BYTES(LIST)_TO_UDP 0 -10 0 14 #fcfcc4 #404040 0;
#X obj 681 319 loadbang;
#X msg 720 394 disconnect;
#X obj 604 431 netsend -u -b;
#X obj 604 286 list prepend send;
#X msg 681 358 connect 192.168.1.79 8002;
#X obj 237 286 list prepend send;
#X obj 237 334 list trim;
#X obj 604 334 list trim;
#X obj 962 274 cnv 15 350 200 empty empty SEND_BYTES(LIST)_TO_UDP 0 -10 0 14 #fcfcc4 #404040 0;
#X obj 1051 319 loadbang;
#X msg 1090 394 disconnect;
#X obj 984 431 netsend -u -b;
#X obj 984 286 list prepend send;
#X obj 984 334 list trim;
#X msg 314 358 connect 192.168.1.131 8007;
#X msg 1051 358 connect 192.168.1.192 8005;
#X connect 2 0 1 0;
#X connect 2 0 17 0;
#X connect 2 0 19 0;
#X connect 2 0 26 0;
#X connect 7 0 4 0;
#X connect 7 0 17 0;
#X connect 7 0 19 0;
#X connect 7 0 26 0;
#X connect 8 0 6 0;
#X connect 8 0 17 0;
#X connect 8 0 19 0;
#X connect 8 0 26 0;
#X connect 10 0 28 0;
#X connect 11 0 12 0;
#X connect 14 0 18 0;
#X connect 15 0 16 0;
#X connect 17 0 21 0;
#X connect 18 0 16 0;
#X connect 19 0 20 0;
#X connect 20 0 12 0;
#X connect 21 0 16 0;
#X connect 23 0 29 0;
#X connect 24 0 25 0;
#X connect 26 0 27 0;
#X connect 27 0 25 0;
#X connect 28 0 12 0;
#X connect 29 0 25 0;
